<?xml version="1.0" standalone="no"?>
<!DOCTYPE svg PUBLIC "-//W3C//DTD SVG 20010904//EN"
 "http://www.w3.org/TR/2001/REC-SVG-20010904/DTD/svg10.dtd">
<svg version="1.0" xmlns="http://www.w3.org/2000/svg"
 width="519.000000pt" height="517.000000pt" viewBox="0 0 519.000000 517.000000"
 preserveAspectRatio="xMidYMid meet">

<g transform="translate(0.000000,517.000000) scale(0.100000,-0.100000)"
fill="#000000" stroke="none">
<path d="M2200 4675 c-272 -46 -510 -205 -668 -444 -118 -179 -152 -318 -152
-616 l0 -202 -31 -7 c-17 -3 -41 -6 -54 -6 -46 0 -142 -59 -184 -113 -66 -86
-71 -112 -71 -343 l0 -203 266 -3 266 -3 25 -29 c32 -37 26 -90 -12 -123 -26
-23 -31 -23 -286 -23 l-259 0 0 -155 0 -155 -204 0 -205 0 -20 -26 c-29 -37
-27 -82 6 -116 l27 -28 198 0 198 0 0 -130 0 -130 -217 -1 c-120 0 -279 -2
-353 -5 -129 -5 -136 -6 -157 -30 -30 -33 -29 -76 1 -111 l24 -28 294 -3 c161
-1 318 1 348 6 39 7 -43 10 -287 11 -335 1 -343 1 -364 22 -17 17 -20 29 -16
56 11 66 -5 63 378 63 226 0 349 4 349 10 0 6 80 10 220 10 206 0 221 -1 240
-20 42 -42 33 -116 -16 -139 -16 -7 -100 -11 -235 -11 l-211 0 4 -182 c3 -177
4 -185 31 -240 35 -72 119 -149 195 -180 l57 -23 1040 -3 c1089 -3 1104 -3
1189 40 60 31 133 105 163 167 27 54 28 61 31 258 l4 203 134 0 c121 0 136 2
154 20 27 27 27 93 0 120 -16 16 -34 20 -92 21 -40 0 -97 2 -127 4 -29 2 -63
0 -75 -5 -13 -6 28 -9 111 -9 127 -1 132 -2 128 -21 -2 -11 0 -18 6 -15 5 4 9
-1 9 -9 0 -9 -5 -16 -11 -16 -6 0 -8 -7 -4 -17 5 -14 1 -13 -14 4 -23 24 -28
38 -9 27 7 -4 8 -3 4 5 -13 20 -27 0 -22 -31 3 -20 1 -28 -8 -25 -6 3 -20 -1
-31 -9 -15 -11 -20 -11 -27 -1 -6 9 -8 7 -8 -5 0 -13 8 -16 38 -14 20 1 51 0
67 -4 36 -7 -285 -20 -507 -20 -166 0 -172 2 -199 51 -15 29 -2 75 28 99 24
19 40 20 240 20 l215 0 -7 175 -7 174 242 3 242 3 18 -35 c22 -43 83 -101 130
-126 56 -29 162 -25 226 8 168 88 195 320 51 443 -106 91 -250 83 -353 -20
-29 -29 -56 -65 -60 -79 l-6 -26 -239 0 -239 0 0 328 c-1 355 -8 446 -41 516
-42 91 -156 176 -236 176 -65 0 -63 -8 -63 214 0 257 -12 326 -83 491 -130
302 -436 528 -780 574 -102 14 -253 12 -347 -4z m426 -343 c144 -49 238 -113
327 -225 108 -136 137 -241 137 -509 l0 -188 -701 0 -702 0 6 213 c4 178 8
223 25 277 71 219 286 404 532 456 107 22 268 12 376 -24z m-81 -1387 c101
-44 169 -117 204 -223 26 -77 26 -132 1 -215 -23 -75 -85 -152 -156 -193 -31
-18 -43 -31 -40 -43 3 -9 14 -63 25 -121 11 -58 39 -195 61 -304 61 -301 66
-296 -250 -296 -210 0 -211 0 -235 24 -36 36 -38 62 -15 172 110 518 114 538
95 549 -133 77 -195 181 -195 326 0 156 97 284 253 335 55 18 198 12 252 -11z
m808 -488 c21 -12 47 -36 58 -54 l20 -33 162 -2 162 -3 3 -54 c2 -31 -2 -64
-9 -77 -12 -24 -15 -24 -164 -24 l-151 0 -35 -36 c-47 -50 -79 -64 -143 -64
-68 0 -102 12 -144 53 -54 53 -67 139 -31 214 50 103 168 138 272 80z m1176
-62 c17 -8 35 -30 45 -55 15 -37 15 -43 0 -80 -26 -63 -84 -86 -144 -55 -40
21 -60 53 -60 98 0 31 7 46 34 73 38 38 77 44 125 19z m-2763 -168 c31 -36 30
-68 -2 -106 l-26 -31 -528 0 c-326 0 -531 4 -535 10 -3 5 -11 7 -18 5 -27 -10
-62 42 -51 78 17 56 21 57 235 57 127 0 200 4 204 10 5 8 119 10 352 8 l345
-3 24 -28z m2269 -413 c20 -20 14 -70 -11 -93 -14 -12 -15 -12 -7 -1 6 8 14
29 17 47 6 25 3 34 -16 47 -12 9 -17 16 -11 16 6 0 19 -7 28 -16z"/>
<path d="M634 2215 c-16 -13 -16 -14 -1 -9 9 3 17 1 17 -5 0 -6 -5 -11 -12
-11 -6 0 -3 -7 8 -15 17 -13 17 -14 2 -15 -10 0 -18 -3 -18 -7 1 -12 30 -48
30 -37 0 6 -5 15 -11 21 -9 9 -7 12 8 10 14 -1 19 -7 16 -18 -4 -14 4 -18 46
-20 57 -4 71 -2 71 12 0 6 -5 7 -10 4 -6 -4 -18 -1 -27 7 -12 9 -15 9 -9 1 5
-9 0 -13 -13 -13 -12 0 -21 5 -21 11 0 5 6 7 13 3 8 -5 8 -2 -2 9 -12 15 -11
17 5 18 51 4 71 7 88 14 12 5 17 5 13 -2 -3 -5 0 -10 7 -10 8 0 12 6 9 14 -4
9 0 11 11 7 9 -3 13 -11 9 -17 -4 -6 -1 -7 7 -2 10 6 10 11 -3 20 -9 7 -13 16
-9 20 4 5 0 4 -8 -1 -8 -5 -23 -7 -32 -6 -10 2 -18 -2 -18 -9 0 -8 -3 -9 -13
0 -8 6 -18 7 -22 3 -5 -4 -5 -1 -1 6 4 7 12 10 17 7 5 -4 9 -2 9 4 0 10 18 10
35 -1 6 -3 19 0 30 8 17 13 12 14 -48 14 l-67 0 4 -30 c3 -25 1 -28 -10 -19
-10 8 -14 8 -14 1 0 -6 -6 -9 -14 -6 -16 6 -29 44 -15 44 5 0 9 -7 9 -15 0
-20 16 -19 24 1 9 24 9 24 -32 24 -21 0 -47 -7 -58 -15z m42 -10 c10 -26 -1
-35 -13 -10 -6 14 -7 25 -2 25 5 0 12 -7 15 -15z"/>
<path d="M442 2730 c-99 -4 -116 -8 -128 -25 -23 -31 -27 -63 -14 -96 24 -57
36 -59 400 -59 213 0 330 4 330 10 0 6 -118 10 -334 10 -184 0 -342 3 -350 6
-9 4 -21 15 -27 25 -9 17 -7 19 21 17 21 -2 29 -7 25 -16 -2 -7 0 -10 5 -7 6
3 10 14 11 23 0 14 2 13 8 -3 5 -11 7 -23 4 -27 -2 -5 52 -8 122 -8 122 0 125
1 115 20 -9 16 -8 18 5 14 9 -4 15 -1 15 7 0 8 6 5 16 -7 15 -19 15 -19 11 2
-3 13 1 21 9 21 7 0 10 -5 7 -10 -4 -7 1 -7 13 -2 10 4 28 9 39 10 11 1 19 7
18 13 -2 6 4 9 12 6 8 -4 15 -13 15 -22 0 -8 -3 -12 -7 -9 -3 4 -12 2 -19 -4
-8 -7 -14 -7 -19 1 -9 15 -25 2 -18 -15 3 -10 -1 -15 -12 -15 -9 0 -13 5 -9
11 4 7 -1 7 -16 -1 -18 -10 -24 -9 -31 1 -7 11 -9 10 -9 -3 0 -15 9 -18 58
-18 39 0 52 3 42 10 -8 5 -12 12 -8 15 3 3 13 -1 21 -10 9 -8 19 -15 23 -15 5
0 3 5 -4 12 -14 14 -16 32 -3 24 4 -3 17 4 27 16 11 12 13 18 5 13 -9 -5 -12
-4 -7 3 3 6 -1 15 -10 20 -16 9 -15 11 4 21 18 10 20 9 17 -9 -5 -27 12 -26
20 1 6 16 13 20 36 17 16 -3 29 -1 29 4 0 4 -84 9 -187 11 -174 2 -169 3 66 5
140 1 251 5 248 9 -8 8 -425 10 -585 3z m45 -17 c-20 -2 -52 -2 -70 0 -17 2 0
4 38 4 39 0 53 -2 32 -4z m-122 -16 c-11 -6 -24 -12 -29 -12 -5 0 -11 -6 -14
-14 -3 -8 0 -11 7 -7 7 5 9 1 5 -8 -4 -11 0 -16 12 -17 12 0 14 -3 6 -6 -15
-6 -42 14 -42 33 0 20 29 44 53 44 22 -1 22 -1 2 -13z m45 -17 c0 -5 -5 -10
-11 -10 -5 0 -7 5 -4 10 3 6 8 10 11 10 2 0 4 -4 4 -10z m177 -72 c-3 -8 -6
-5 -6 6 -1 11 2 17 5 13 3 -3 4 -12 1 -19z m-17 -8 c0 -5 -10 -10 -22 -9 -22
0 -22 1 -3 9 11 5 21 9 23 9 1 1 2 -3 2 -9z"/>
<path d="M928 2703 c7 -3 16 -2 19 1 4 3 -2 6 -13 5 -11 0 -14 -3 -6 -6z"/>
<path d="M835 2663 c-9 -24 -6 -33 9 -27 19 7 27 41 10 41 -7 0 -16 -7 -19
-14z"/>
<path d="M877 2665 c-4 -8 -2 -17 3 -20 6 -4 10 3 10 14 0 25 -6 27 -13 6z"/>
<path d="M833 2583 c9 -2 23 -2 30 0 6 3 -1 5 -18 5 -16 0 -22 -2 -12 -5z"/>
<path d="M3930 1820 c0 -5 7 -7 15 -4 8 4 15 8 15 10 0 2 -7 4 -15 4 -8 0 -15
-4 -15 -10z"/>
<path d="M340 1779 c-12 -8 -10 -9 8 -4 12 4 22 2 22 -4 0 -5 -10 -11 -22 -13
-28 -4 -35 -35 -14 -63 11 -16 26 -20 69 -19 33 0 62 6 73 15 16 13 17 12 10
-5 -7 -19 -6 -19 14 -1 11 10 20 13 20 8 0 -6 19 -11 42 -11 23 -1 59 -4 81
-7 26 -5 37 -4 33 3 -4 7 4 8 25 2 26 -8 30 -7 25 6 -4 10 -1 14 6 11 7 -2 12
-10 10 -17 -2 -10 1 -10 14 1 12 9 15 9 10 2 -4 -8 -1 -13 8 -13 19 0 22 30 4
30 -7 0 -5 5 5 11 9 5 17 16 17 23 0 7 7 13 15 13 8 0 15 -7 15 -14 0 -8 -4
-12 -9 -9 -5 3 -14 -1 -21 -9 -10 -12 -10 -15 0 -15 7 0 10 -7 6 -15 -3 -8 -1
-15 4 -15 6 0 10 4 10 10 0 5 7 7 15 4 20 -8 47 15 40 34 -3 10 0 12 10 9 19
-8 26 5 14 23 -7 13 -9 13 -9 1 0 -11 -5 -9 -21 5 -22 19 -22 19 -15 -6 6 -23
6 -23 -7 -8 -8 10 -23 19 -33 21 -10 1 -25 6 -31 10 -9 5 -11 3 -7 -6 3 -8 0
-18 -7 -23 -8 -4 -10 -3 -5 4 4 7 2 12 -4 12 -7 0 -10 7 -6 15 3 8 0 15 -5 15
-6 0 -9 -9 -6 -20 3 -11 0 -23 -5 -27 -6 -3 -8 -1 -5 4 12 19 -43 11 -57 -8
-14 -20 -28 -16 -20 6 3 7 -4 16 -15 20 -12 3 -21 11 -21 16 0 5 -12 9 -27 8
l-28 -1 25 -8 c14 -4 19 -8 12 -9 -7 -1 -10 -6 -6 -13 5 -7 3 -8 -7 -3 -22 14
-50 13 -45 -1 4 -9 -1 -9 -20 1 -17 9 -37 10 -62 4 -21 -4 -41 -4 -47 1 -7 6
-16 5 -25 -3 -10 -10 -12 -9 -7 5 3 10 0 19 -9 22 -19 7 -16 8 -34 -5z m30
-34 c0 -2 -9 -9 -20 -15 -12 -6 -20 -7 -20 -1 0 5 8 12 18 14 9 3 18 5 20 6 1
0 2 -1 2 -4z m340 -9 c0 -2 -7 -7 -16 -10 -8 -3 -12 -2 -9 4 6 10 25 14 25 6z
m-70 -19 c0 -8 -7 -14 -15 -14 -11 0 -12 4 -4 14 6 7 13 13 15 13 2 0 4 -6 4
-13z m220 -17 c-8 -5 -18 -6 -24 -3 -5 4 -1 10 10 13 24 9 34 2 14 -10z"/>
<path d="M420 1779 c0 -5 5 -7 10 -4 6 3 10 8 10 11 0 2 -4 4 -10 4 -5 0 -10
-5 -10 -11z"/>
<path d="M3820 1746 c0 -7 -9 -16 -20 -19 -11 -3 -20 -1 -20 4 0 5 -5 9 -11 9
-23 0 10 -26 35 -28 22 -1 26 3 26 23 0 14 -2 25 -5 25 -3 0 -5 -6 -5 -14z"/>
<path d="M925 1730 c3 -5 8 -10 11 -10 2 0 4 5 4 10 0 6 -5 10 -11 10 -5 0 -7
-4 -4 -10z"/>
</g>
</svg>
