<svg width="1272" height="1272" viewBox="0 0 1272 1272" fill="none" xmlns="http://www.w3.org/2000/svg">
<path d="M95.7259 1210.82L210.78 1106.25L335.715 1209.41C338.302 1211.55 341.789 1212.24 344.998 1211.26C348.208 1210.29 350.713 1207.76 351.668 1204.55L354.43 1195.25C439.08 1237.95 534.745 1262 636 1262C981.73 1262 1262 981.73 1262 636C1262 487.11 1210.01 350.337 1123.2 242.884L1123.67 229.101C1123.69 228.649 1123.67 228.196 1123.63 227.745L1102.59 21.2839C1102.99 18.2326 1101.96 15.077 1099.64 12.8248C1097.69 10.9321 1095.13 9.97156 1092.56 10.0005C1089.97 9.96149 1087.47 10.9326 1085.59 12.6904L955.826 97.7562C862.217 42.0152 752.833 10 636 10C290.27 10 10 290.27 10 636C10 768.174 50.9745 890.808 120.914 991.854L79.1924 1201.47C78.3497 1205.71 80.3191 1210 84.0766 1212.13C87.8341 1214.25 92.5313 1213.73 95.7259 1210.82Z" fill="white" stroke="white" stroke-width="20" stroke-linejoin="round"/>
<circle cx="636" cy="636" r="616" fill="#000520"/>
<path d="M547.807 1099.36L492.425 1204L377.623 1068.89L434.979 888.969L547.807 1099.36Z" fill="#0072C6"/>
<path d="M205.139 1088.63L434.979 888.969L342.082 1201.7L205.139 1088.63Z" fill="#5CBBFF"/>
<path d="M233.5 478.312L335.84 695.649L512.923 689.9L233.5 478.312Z" fill="#5CBBFF"/>
<path d="M596.677 1204V592.212L530.559 621.534L512.735 689.953L335.652 695.702L596.677 1204Z" fill="#5CBBFF"/>
<path d="M89 1203.42L233.311 478.372L434.979 888.968L89 1203.42Z" fill="#0072C6"/>
<path d="M233.312 478.365L512.736 689.952L596.678 592.212L233.312 478.365Z" fill="#0072C6"/>
<path d="M512.734 689.953L596.676 592.212V928.555L512.734 689.953Z" fill="#F8842C"/>
<path d="M530.558 621.534L596.676 592.212L512.734 689.953L530.558 621.534Z" fill="#E44418"/>
<path d="M339.102 695.701L512.735 689.951L555.281 810.69L339.102 695.701Z" fill="#E44418"/>
<path d="M340.827 271.392L596.678 184L233.312 478.372L340.827 271.392Z" fill="#0072C6"/>
<circle cx="88.5416" cy="88.5416" r="88.5416" transform="matrix(-1 0 0 1 492.037 474.922)" fill="#000520"/>
<path fill-rule="evenodd" clip-rule="evenodd" d="M317.538 542.143L447.319 640.417C474.031 625.172 492.037 596.421 492.037 563.464C492.037 562.101 492.006 560.745 491.945 559.398L333.176 509.653C325.897 519.151 320.499 530.167 317.538 542.143Z" fill="#543B9C"/>
<circle cx="57.4945" cy="57.4945" r="57.4945" transform="matrix(-1 0 0 1 460.99 505.969)" fill="#FCD116"/>
<path fill-rule="evenodd" clip-rule="evenodd" d="M346.002 563.696L418.875 618.877C443.161 612.152 460.99 589.89 460.99 563.463C460.99 558.516 460.365 553.715 459.191 549.135L365.948 519.921C353.733 530.464 346.001 546.061 346.001 563.463C346.001 563.541 346.001 563.618 346.002 563.696Z" fill="#F8842C"/>
<circle cx="30" cy="30" r="30" transform="matrix(-1 0 0 1 433.494 533.463)" fill="#0A0933"/>
<path d="M596.678 592.211V184L233.312 478.364L596.678 592.211Z" fill="#5CBBFF"/>
<path d="M963.676 228.719L677.074 184L676.676 520L963.676 228.719Z" fill="#F8842C"/>
<path d="M1092.68 20L809.676 205.523L964.352 229L1092.68 20Z" fill="#FCD116"/>
<path d="M1113.68 228.759L1092.41 20L963.676 228.759L1104.48 497L1113.68 228.759Z" fill="#F8842C"/>
<path d="M1047.34 729L859.018 622.351L888.196 549L1098.68 578.329L1047.34 729Z" fill="#FCD116"/>
<path d="M1104.68 497L1099.52 579L676.676 520L890.676 508.549L1104.68 497Z" fill="#F8842C"/>
<path d="M800.871 537.184L676.676 520L736.674 841.013L858.676 941L767.103 642.577L800.871 537.184Z" fill="#FCD116"/>
<path d="M858.431 941L1047.68 728.809L860.151 623L766.676 643.018L858.431 941Z" fill="#F8842C"/>
<path d="M676.676 840.427V520L736.676 841L676.676 840.427Z" fill="#F8842C"/>
<path d="M676.675 928V840L736.709 841.049L676.675 928Z" fill="#000520"/>
<path d="M858.676 941.09L736.77 841L676.676 928.507L755.657 1000L858.676 941.09Z" fill="#F8842C"/>
<path d="M755.676 1000L676.676 928V1000H755.676Z" fill="#FCD116"/>
<path d="M810.872 503.027L766.676 643L939.444 606.852L991.676 503L810.872 503.027Z" fill="#000520"/>
<path fill-rule="evenodd" clip-rule="evenodd" d="M991.235 503.312L962.856 559.758L800.138 537.151L807.724 512.996L890.479 508.575L991.235 503.312Z" fill="#543B9C"/>
<circle cx="64" cy="64" r="64" transform="matrix(-1 0 0 1 945.676 470)" fill="#5CBBFF"/>
<path fill-rule="evenodd" clip-rule="evenodd" d="M817.75 539.8C817.581 537.903 817.495 535.983 817.495 534.042C817.495 526.437 818.819 519.141 821.249 512.373L890.423 508.579L939.29 506.026C943.408 514.49 945.719 523.996 945.719 534.042C945.719 542.097 944.233 549.805 941.521 556.907L817.75 539.8Z" fill="#0072C6"/>
<ellipse cx="30" cy="30.4615" rx="30" ry="30.4615" transform="matrix(-1 0 0 1 911.176 503.539)" fill="#0A0933"/>
<path d="M1104.68 497.132L963.669 228.748L676.676 520L1104.68 497.132Z" fill="#FCD116"/>
<rect x="926.191" y="922.887" width="305.809" height="308.191" rx="40" fill="#000520" stroke="white" stroke-width="20"/>
<path d="M1031.75 1011.64C1039.19 1011.51 1046.5 1012.29 1053.68 1014.12C1059.04 1015.43 1064.13 1017.78 1068.57 1021.05C1072.22 1023.8 1075.23 1027.59 1076.92 1031.91C1078.75 1036.49 1079.67 1041.19 1079.54 1046.16C1079.54 1049.04 1079.14 1051.92 1078.23 1054.67C1077.32 1057.41 1076.01 1060.03 1074.31 1062.25C1072.35 1064.74 1070 1066.96 1067.39 1068.79C1064.26 1070.88 1060.87 1072.58 1057.34 1073.76C1066.09 1075.85 1072.49 1079.12 1076.66 1083.83C1080.84 1088.54 1082.93 1094.56 1082.93 1101.88C1082.93 1107.11 1081.89 1112.21 1079.8 1116.92C1077.71 1121.63 1074.57 1125.68 1070.66 1128.95C1066.35 1132.62 1061.26 1135.23 1055.9 1136.93C1049.38 1138.89 1042.59 1139.94 1035.8 1139.81H986.443V1011.64H1031.75ZM1012.82 1031.78V1066.44H1030.18C1033.45 1066.44 1036.84 1066.18 1040.11 1065.52C1042.72 1065 1045.2 1064.08 1047.29 1062.51C1049.24 1061.21 1050.81 1059.37 1051.73 1057.15C1052.77 1054.67 1053.29 1051.92 1053.29 1049.17C1053.29 1046.43 1052.9 1043.68 1051.99 1041.06C1051.2 1038.97 1049.9 1037.01 1048.07 1035.7C1046.11 1034.26 1043.76 1033.22 1041.41 1032.69C1038.28 1032.04 1035.01 1031.78 1031.75 1031.78H1012.82ZM1035.54 1119.41C1039.06 1119.54 1042.59 1119.01 1045.98 1117.84C1048.46 1116.92 1050.68 1115.61 1052.51 1113.78C1054.08 1112.08 1055.25 1110.12 1055.9 1107.9C1056.56 1105.67 1056.82 1103.32 1056.82 1101.1C1056.82 1098.74 1056.43 1096.39 1055.64 1094.16C1054.86 1092.07 1053.55 1090.37 1051.99 1088.93C1050.03 1087.36 1047.81 1086.19 1045.33 1085.66C1042.06 1084.88 1038.67 1084.49 1035.27 1084.49H1012.82V1119.54L1035.54 1119.41Z" fill="white"/>
<path d="M1129.68 1155.82C1130.93 1155.82 1131.91 1156.17 1132.6 1156.86C1133.33 1157.56 1133.69 1158.48 1133.69 1159.62V1166.39H1091.66V1162.63C1091.66 1161.9 1091.82 1161.12 1092.12 1160.29C1092.43 1159.42 1092.94 1158.64 1093.67 1157.95L1111.63 1139.94C1113.16 1138.41 1114.51 1136.95 1115.68 1135.56C1116.85 1134.14 1117.83 1132.76 1118.61 1131.42C1119.39 1130.06 1119.97 1128.68 1120.36 1127.28C1120.75 1125.89 1120.95 1124.43 1120.95 1122.9C1120.95 1120.2 1120.25 1118.15 1118.86 1116.76C1117.47 1115.34 1115.5 1114.63 1112.97 1114.63C1111.85 1114.63 1110.82 1114.79 1109.88 1115.13C1108.96 1115.43 1108.12 1115.86 1107.37 1116.42C1106.65 1116.98 1106.02 1117.63 1105.49 1118.39C1104.96 1119.14 1104.57 1119.96 1104.32 1120.85C1103.82 1122.24 1103.14 1123.18 1102.27 1123.65C1101.44 1124.09 1100.24 1124.19 1098.68 1123.94L1092.58 1122.86C1093.03 1119.9 1093.86 1117.31 1095.09 1115.09C1096.31 1112.86 1097.85 1111 1099.68 1109.53C1101.52 1108.05 1103.62 1106.95 1105.99 1106.23C1108.36 1105.48 1110.91 1105.1 1113.64 1105.1C1116.51 1105.1 1119.11 1105.53 1121.45 1106.4C1123.82 1107.23 1125.84 1108.41 1127.51 1109.95C1129.18 1111.45 1130.47 1113.27 1131.39 1115.42C1132.31 1117.56 1132.77 1119.93 1132.77 1122.52C1132.77 1124.75 1132.45 1126.81 1131.81 1128.7C1131.17 1130.6 1130.29 1132.41 1129.18 1134.14C1128.09 1135.83 1126.82 1137.49 1125.38 1139.11C1123.93 1140.72 1122.4 1142.35 1120.78 1143.99L1107.91 1157.15C1109.33 1156.74 1110.74 1156.42 1112.13 1156.19C1113.53 1155.94 1114.83 1155.82 1116.06 1155.82H1129.68Z" fill="white"/>
<path d="M1154.92 1127.49C1156.17 1127.24 1157.37 1127.06 1158.51 1126.95C1159.68 1126.84 1160.81 1126.78 1161.89 1126.78C1165.07 1126.78 1167.87 1127.27 1170.29 1128.24C1172.74 1129.19 1174.79 1130.5 1176.43 1132.17C1178.1 1133.84 1179.36 1135.81 1180.19 1138.06C1181.03 1140.32 1181.45 1142.74 1181.45 1145.33C1181.45 1148.56 1180.88 1151.51 1179.73 1154.19C1178.59 1156.83 1177 1159.12 1174.97 1161.04C1172.97 1162.93 1170.56 1164.41 1167.74 1165.47C1164.96 1166.53 1161.91 1167.06 1158.59 1167.06C1156.67 1167.06 1154.83 1166.85 1153.08 1166.43C1151.33 1166.04 1149.68 1165.51 1148.15 1164.84C1146.65 1164.14 1145.24 1163.35 1143.93 1162.46C1142.62 1161.57 1141.45 1160.64 1140.42 1159.66L1143.97 1154.81C1144.72 1153.78 1145.7 1153.27 1146.9 1153.27C1147.65 1153.27 1148.39 1153.49 1149.11 1153.94C1149.84 1154.38 1150.66 1154.88 1151.58 1155.44C1152.5 1155.97 1153.57 1156.46 1154.79 1156.9C1156.02 1157.35 1157.51 1157.57 1159.26 1157.57C1161.07 1157.57 1162.65 1157.28 1163.98 1156.69C1165.32 1156.08 1166.42 1155.26 1167.28 1154.23C1168.18 1153.17 1168.83 1151.93 1169.25 1150.51C1169.69 1149.06 1169.92 1147.52 1169.92 1145.87C1169.92 1142.73 1169.01 1140.3 1167.2 1138.61C1165.42 1136.88 1162.81 1136.02 1159.39 1136.02C1156.58 1136.02 1153.75 1136.54 1150.91 1137.6L1143.76 1135.6L1148.86 1105.77H1179.27V1110.62C1179.27 1111.42 1179.15 1112.16 1178.9 1112.83C1178.67 1113.47 1178.29 1114.04 1177.73 1114.54C1177.2 1115.02 1176.5 1115.39 1175.64 1115.67C1174.8 1115.92 1173.77 1116.05 1172.55 1116.05H1156.88L1154.92 1127.49Z" fill="white"/>
</svg>
